<svg xmlns="http://www.w3.org/2000/svg" xmlns:xlink="http://www.w3.org/1999/xlink" xmlns:xodm="http://www.corel.com/coreldraw/odm/2003" xml:space="preserve" width="10.3163mm" height="10.3167mm" version="1.1" style="shape-rendering:geometricPrecision; text-rendering:geometricPrecision; image-rendering:optimizeQuality; fill-rule:evenodd; clip-rule:evenodd" viewBox="0 0 106.2 106.2">
 <defs>
  <style type="text/css">
   <![CDATA[
    .fil1 {fill:white;fill-rule:nonzero}
    .fil0 {fill:url(#id0);fill-rule:nonzero}
   ]]>
  </style>
  <linearGradient id="id0" gradientUnits="userSpaceOnUse" x1="90.64" y1="15.56" x2="15.55" y2="90.65">
   <stop offset="0" style="stop-opacity:1; stop-color:#FF679B"/>
   <stop offset="0.509804" style="stop-opacity:1; stop-color:#F13A99"/>
   <stop offset="1" style="stop-opacity:1; stop-color:#E20C96"/>
  </linearGradient>
 </defs>
 <g id="Layer_x0020_1">
  <metadata id="CorelCorpID_0Corel-Layer"/>
  <g id="_3174578706176">
   <path class="fil0" d="M-0 53.1c0,29.33 23.77,53.1 53.1,53.1 29.32,0 53.1,-23.77 53.1,-53.1l0 0c0,-29.32 -23.78,-53.1 -53.1,-53.1l0 0c-29.32,0 -53.1,23.78 -53.1,53.1z"/>
   <path class="fil1" d="M67.39 73.9c-0.34,-1.94 -1.7,-9.04 -4.84,-17.7 1.76,-0.27 3.48,-0.38 5.08,-0.38 5.28,0 9.4,1.16 10.36,1.45 -1.14,6.87 -5.08,12.82 -10.6,16.63zm-14.29 4.44c-5.79,0 -11.13,-1.96 -15.39,-5.25 0.72,-1.41 5.95,-10.83 19.77,-15.64 0.01,0 0.02,-0 0.03,-0.01 3.46,9.02 4.93,16.59 5.34,18.94 -3,1.26 -6.29,1.96 -9.75,1.96zm-25.24 -25.2c0,-0.21 0,-0.41 0.01,-0.62 0.15,0 0.37,0 0.66,0 3.13,0 14,-0.26 25.2,-3.58 0.68,1.33 1.33,2.68 1.93,4.02 -0.28,0.08 -0.56,0.16 -0.84,0.26 -12.61,4.07 -19.54,14.85 -20.61,16.62 -3.95,-4.45 -6.36,-10.3 -6.36,-16.7zm14.4 -22.75c0.87,1.2 5.19,7.23 9.23,14.37 -10.85,2.85 -20.49,3.04 -22.81,3.04l-0.25 0c1.67,-7.7 6.87,-14.1 13.82,-17.41zm10.84 -2.44c6.37,0 12.18,2.36 16.63,6.25 -0.7,0.96 -4.52,5.73 -13.03,8.95 -3.94,-7.2 -8.26,-13.17 -9.28,-14.56 1.83,-0.42 3.73,-0.65 5.69,-0.65zm19.66 9.41c3.41,4.22 5.48,9.55 5.57,15.36 -1.13,-0.23 -5.93,-1.13 -11.67,-1.13 -1.85,0 -3.8,0.09 -5.75,0.33 -0.17,-0.4 -0.33,-0.8 -0.51,-1.2 -0.5,-1.19 -1.05,-2.37 -1.62,-3.54 8.83,-3.64 13.09,-8.69 13.98,-9.83zm-19.66 -14.08c-16.47,0 -29.87,13.38 -29.87,29.83 0,16.45 13.4,29.83 29.87,29.83 16.47,0 29.87,-13.38 29.87,-29.83 0,-16.45 -13.4,-29.83 -29.87,-29.83z"/>
  </g>
 </g>
</svg>