<svg xmlns="http://www.w3.org/2000/svg" version="1.1" width="272" height="92">
<path d="M0 0 C1.671875 1.37109375 1.671875 1.37109375 3.984375 3.62109375 C2.54183843 6.98701241 0.65172773 9.13156454 -2.015625 11.62109375 C-2.53125 11.35296875 -3.046875 11.08484375 -3.578125 10.80859375 C-4.3825 10.41671875 -5.186875 10.02484375 -6.015625 9.62109375 C-7.0675 9.10546875 -8.119375 8.58984375 -9.203125 8.05859375 C-16.12496603 5.18064279 -22.06672623 5.07105275 -29.0703125 7.71875 C-31.30304945 8.75441714 -33.13383083 10.04038665 -35.015625 11.62109375 C-35.675625 11.62109375 -36.335625 11.62109375 -37.015625 11.62109375 C-41.17412459 19.78823708 -44.71503337 26.89780938 -42.390625 36.09375 C-40.18590188 42.61933673 -36.77688711 46.84462399 -31.015625 50.62109375 C-24.78682211 53.69424484 -17.16820511 53.82899834 -10.53125 51.8984375 C-2.86450906 48.33887921 -1.00127637 43.58283074 1.984375 35.62109375 C-5.275625 35.62109375 -12.535625 35.62109375 -20.015625 35.62109375 C-20.015625 32.65109375 -20.015625 29.68109375 -20.015625 26.62109375 C-9.125625 26.62109375 1.764375 26.62109375 12.984375 26.62109375 C12.984375 40.08055362 12.65762649 46.94511423 3.52734375 56.41796875 C-4.0912708 63.01842744 -12.2473333 64.96446008 -22.11328125 64.83203125 C-32.07891534 64.1077456 -40.62042423 59.60943444 -47.328125 52.24609375 C-54.63008829 43.09835641 -55.8488391 34.12680017 -55.015625 22.62109375 C-53.3363258 13.87285263 -48.7728322 7.33028506 -42.015625 1.62109375 C-29.00500797 -6.4105544 -13.39581619 -9.16419208 0 0 Z " fill="#FFFFFF" transform="translate(55.015625,5.37890625)"/>
<path d="M0 0 C1.1240625 -0.00515625 2.248125 -0.0103125 3.40625 -0.015625 C6.35041743 0.23715705 8.01695505 0.71635459 10.5 2.25 C10.83 1.92 11.16 1.59 11.5 1.25 C13.18608966 1.17794489 14.87500659 1.16613932 16.5625 1.1875 C17.48160156 1.19652344 18.40070313 1.20554687 19.34765625 1.21484375 C20.05792969 1.22644531 20.76820313 1.23804687 21.5 1.25 C21.60179743 8.08173836 21.67163191 14.91327959 21.71972656 21.74560547 C21.73978577 24.06761993 21.76703991 26.38958423 21.80175781 28.71142578 C21.85052541 32.05774345 21.87302643 35.40339059 21.890625 38.75 C21.91127014 39.7805249 21.93191528 40.8110498 21.95318604 41.87280273 C21.95534635 48.88315226 20.89662641 54.39887255 16.1585083 59.77099609 C11.1269834 64.40231216 5.26062538 65.69907341 -1.453125 65.50390625 C-7.31151974 64.77719698 -12.26856373 62.36053809 -16.5 58.25 C-18.61846092 55.25493457 -19.5 53.94349436 -19.5 50.25 C-16.53 49.26 -13.56 48.27 -10.5 47.25 C-9.9225 48.03375 -9.345 48.8175 -8.75 49.625 C-6.57513193 52.16234608 -5.53108709 53.08504667 -2.5 54.25 C-0.2323347 54.38971133 -0.2323347 54.38971133 2.0625 54.0625 C2.82691406 53.98644531 3.59132812 53.91039062 4.37890625 53.83203125 C6.94512813 53.12785619 7.92268161 52.38230078 9.5 50.25 C10.07017808 48.20899762 10.07017808 48.20899762 10.1875 46.0625 C10.290625 44.804375 10.39375 43.54625 10.5 42.25 C9.675 42.745 8.85 43.24 8 43.75 C2.5049877 46.10500527 -2.12848559 45.8945669 -7.6875 44.0625 C-13.77450538 41.51334315 -17.14109293 36.76820447 -20.5 31.25 C-22.54259807 25.12220578 -22.32394979 18.44441848 -19.9375 12.4375 C-15.83892688 4.29869643 -8.98965358 -0.04123694 0 0 Z M-6.5 12.25 C-10.1403645 16.27356076 -11.24677111 19.6888863 -11.03125 24.99609375 C-10.09187532 28.98152897 -7.53019408 31.61231811 -4.5 34.25 C-1.35088521 35.82455739 1.02008816 35.59799118 4.5 35.25 C7.71715827 33.12546152 9.8621621 31.24835497 11.9375 28 C13.02882063 22.6646547 12.5588954 17.96614082 9.6875 13.3125 C4.31140889 8.2436141 -0.22662644 8.32914152 -6.5 12.25 Z " fill="#FFFFFF" transform="translate(188.5,24.75)"/>
<path d="M0 0 C3.03549581 2.9496434 5.12640461 5.71098172 6.5625 9.75 C6.5625 11.07 6.5625 12.39 6.5625 13.75 C-2.3475 17.38 -11.2575 21.01 -20.4375 24.75 C-20.4375 25.41 -20.4375 26.07 -20.4375 26.75 C-17.60584735 28.98099906 -15.58204589 29.72897514 -12 30.25 C-7.31808641 29.59288932 -5.77537132 28.00645983 -2.4375 24.75 C1.02175163 25.9991742 3.70943203 27.42527795 6.5625 29.75 C4.66348116 34.87735087 0.52865963 37.83245884 -4.25 40.0625 C-11.43035613 41.61120426 -17.90667276 41.28808563 -24.4375 37.75 C-28.60571943 34.9934621 -32.27419825 31.83912492 -34 26.99609375 C-35.45313374 19.53580893 -35.84620638 11.09119641 -31.7578125 4.4296875 C-27.65453665 -0.79045633 -23.49307985 -4.04427281 -16.828125 -5.12109375 C-10.22859957 -5.47695051 -5.13753145 -4.24363861 0 0 Z M-21.4375 8.75 C-22.75987469 11.05428725 -23.56163743 13.21973036 -24.4375 15.75 C-20.45265512 15.08585919 -16.92733028 13.89488176 -13.1875 12.375 C-12.13046875 11.95476563 -11.0734375 11.53453125 -9.984375 11.1015625 C-7.12390836 9.95882866 -7.12390836 9.95882866 -6.4375 6.75 C-12.35561656 3.24296796 -16.27540765 4.37344344 -21.4375 8.75 Z " fill="#FFFFFF" transform="translate(263.4375,29.25)"/>
<path d="M0 0 C5.91826866 3.5260183 10.22648032 8.52709722 12.4140625 15.08984375 C13.31841256 22.61908382 12.89435765 29.76987434 8.4140625 36.08984375 C3.13052347 41.31717492 -2.50936365 44.08390042 -9.9609375 44.40234375 C-17.62143538 44.19634717 -23.16668778 41.38306441 -28.5859375 36.08984375 C-33.17088184 29.60768106 -33.28281416 22.83513006 -32.5859375 15.08984375 C-30.65072539 8.07178536 -25.77250999 3.78518135 -19.8203125 -0.046875 C-14.09806288 -2.25774417 -5.77814244 -2.03369666 0 0 Z M-20.2421875 13.921875 C-22.60434764 17.73291825 -22.09961688 21.75523417 -21.5859375 26.08984375 C-19.886143 30.29459857 -17.7434171 32.29456847 -13.5859375 34.08984375 C-9.26785804 34.6394175 -7.14264856 34.38395525 -3.2734375 32.33984375 C-0.08896106 29.67377045 1.14268109 27.82097147 1.78515625 23.72265625 C1.9008051 19.35521145 1.97670525 16.10348362 -0.8359375 12.58984375 C-3.98242036 9.72940478 -5.79756864 8.37221778 -9.9609375 7.71484375 C-14.3136324 8.33665731 -17.33391989 10.70494691 -20.2421875 13.921875 Z " fill="#FFFFFF" transform="translate(103.5859375,25.91015625)"/>
<path d="M0 0 C5.90518626 3.518224 10.25536773 8.52854781 12.4140625 15.08984375 C13.14918342 21.76576741 13.33412803 28.46815582 9.8125 34.375 C5.33744239 39.86257065 -0.58996453 43.57623905 -7.67578125 44.3046875 C-14.62598679 44.60170483 -20.38544982 43.01931935 -25.8984375 38.71484375 C-31.30607782 33.43296251 -32.71660238 28.72809164 -32.8984375 21.33984375 C-32.81763455 14.69784118 -31.54442798 10.16502643 -26.90234375 5.33984375 C-19.33570726 -1.42944825 -9.81678041 -3.45515081 0 0 Z M-20.3984375 13.96484375 C-22.30508882 17.37674611 -22.95583742 20.22957037 -22.18359375 24.11328125 C-20.98783342 27.91990291 -19.83788255 29.86080279 -16.8359375 32.58984375 C-12.98726588 34.36615373 -10.78041514 34.68905484 -6.5859375 34.08984375 C-2.56246621 31.96423627 -0.26158687 30.30943353 1.4140625 26.08984375 C2.0499708 22.03341814 2.34360376 17.90448606 0.43359375 14.17578125 C-2.54442806 10.45554477 -5.31510783 8.4483958 -9.9609375 7.71484375 C-14.37848145 8.34592146 -17.35242443 10.81379575 -20.3984375 13.96484375 Z " fill="#FFFFFF" transform="translate(151.5859375,25.91015625)"/>
<path d="M0 0 C2.97 0 5.94 0 9 0 C9 21.45 9 42.9 9 65 C6.03 65 3.06 65 0 65 C0 43.55 0 22.1 0 0 Z " fill="#ffffff" transform="translate(216,3)"/>
</svg>