<svg xmlns="http://www.w3.org/2000/svg" xmlns:xlink="http://www.w3.org/1999/xlink" xmlns:xodm="http://www.corel.com/coreldraw/odm/2003" xml:space="preserve" width="10.3163mm" height="10.3162mm" version="1.1" style="shape-rendering:geometricPrecision; text-rendering:geometricPrecision; image-rendering:optimizeQuality; fill-rule:evenodd; clip-rule:evenodd" viewBox="0 0 104.6 104.6">
 <defs>
  <style type="text/css">
   <![CDATA[
    .fil1 {fill:white;fill-rule:nonzero}
    .fil0 {fill:url(#id0)}
   ]]>
  </style>
  <linearGradient id="id0" gradientUnits="userSpaceOnUse" x1="89.28" y1="15.32" x2="15.32" y2="89.28">
   <stop offset="0" style="stop-opacity:1; stop-color:#FFE286"/>
   <stop offset="0.211765" style="stop-opacity:1; stop-color:#FFBD36"/>
   <stop offset="0.380392" style="stop-opacity:1; stop-color:#FF5176"/>
   <stop offset="0.521569" style="stop-opacity:1; stop-color:#F73296"/>
   <stop offset="0.741176" style="stop-opacity:1; stop-color:#A535D3"/>
   <stop offset="1" style="stop-opacity:1; stop-color:#5F4DEE"/>
  </linearGradient>
 </defs>
 <g id="Layer_x0020_1">
  <metadata id="CorelCorpID_0Corel-Layer"/>
  <g id="_3138776025808">
   <path class="fil0" d="M-0 52.3c0,28.89 23.42,52.3 52.3,52.3 28.89,0 52.3,-23.42 52.3,-52.3l0 0c0,-28.89 -23.42,-52.3 -52.3,-52.3l0 0c-28.89,0 -52.3,23.41 -52.3,52.3z"/>
   <path class="fil1" d="M68.54 32.52c-1.99,0 -3.59,1.61 -3.59,3.59 0,1.99 1.61,3.6 3.59,3.6 1.99,0 3.6,-1.61 3.6,-3.6 0,-1.99 -1.61,-3.59 -3.6,-3.59z"/>
   <path class="fil1" d="M52.55 61.9c-5.33,0 -9.68,-4.34 -9.68,-9.68 0,-5.33 4.34,-9.67 9.68,-9.67 5.33,0 9.67,4.34 9.67,9.67 0,5.34 -4.34,9.68 -9.67,9.68zm0 -24.77c-8.33,0 -15.1,6.77 -15.1,15.1 0,8.33 6.77,15.11 15.1,15.11 8.33,0 15.1,-6.78 15.1,-15.11 0,-8.33 -6.77,-15.1 -15.1,-15.1z"/>
   <path class="fil1" d="M40.06 27.33c-6.98,0 -12.65,5.67 -12.65,12.65l0 24.48c0,6.98 5.68,12.65 12.65,12.65l24.48 0c6.98,0 12.65,-5.67 12.65,-12.65l0 -24.48c0,-6.98 -5.68,-12.65 -12.65,-12.65l-24.48 0zm24.48 55.56l-24.48 0c-10.16,0 -18.42,-8.26 -18.42,-18.42l0 -24.48c0,-10.16 8.26,-18.42 18.42,-18.42l24.48 0c10.16,0 18.42,8.26 18.42,18.42l0 24.48c0,10.16 -8.26,18.42 -18.42,18.42z"/>
  </g>
 </g>
</svg>