<svg xmlns="http://www.w3.org/2000/svg" xmlns:xlink="http://www.w3.org/1999/xlink" xmlns:xodm="http://www.corel.com/coreldraw/odm/2003" xml:space="preserve" width="10.3163mm" height="10.3159mm" version="1.1" style="shape-rendering:geometricPrecision; text-rendering:geometricPrecision; image-rendering:optimizeQuality; fill-rule:evenodd; clip-rule:evenodd" viewBox="0 0 81.6 81.6">
 <defs>
  <style type="text/css">
   <![CDATA[
    .fil1 {fill:white}
    .fil0 {fill:url(#id0)}
   ]]>
  </style>
  <linearGradient id="id0" gradientUnits="userSpaceOnUse" x1="69.65" y1="11.95" x2="11.95" y2="69.65">
   <stop offset="0" style="stop-opacity:1; stop-color:#FF4B3C"/>
   <stop offset="0.509804" style="stop-opacity:1; stop-color:#F8263D"/>
   <stop offset="1" style="stop-opacity:1; stop-color:#F0003E"/>
  </linearGradient>
 </defs>
 <g id="Layer_x0020_1">
  <metadata id="CorelCorpID_0Corel-Layer"/>
  <g id="_3138776011984">
   <path class="fil0" d="M-0 40.8c0,22.54 18.27,40.8 40.8,40.8 22.53,0 40.8,-18.27 40.8,-40.8l0 0c0,-22.53 -18.27,-40.8 -40.8,-40.8l0 0c-22.53,0 -40.8,18.27 -40.8,40.8z"/>
   <path class="fil1" d="M37.66 49.67c-0.04,0.14 -0.08,0.26 -0.11,0.39 -1.82,7.12 -2.02,8.71 -3.89,12.02 -0.89,1.57 -1.89,3.06 -3.01,4.49 -0.13,0.16 -0.24,0.37 -0.49,0.32 -0.27,-0.06 -0.3,-0.3 -0.33,-0.53 -0.3,-2.16 -0.46,-4.34 -0.39,-6.52 0.09,-2.85 0.45,-3.83 4.12,-19.26 0.06,-0.24 -0.01,-0.43 -0.08,-0.64 -0.88,-2.37 -1.05,-4.77 -0.28,-7.21 1.66,-5.26 7.63,-5.67 8.67,-1.32 0.64,2.69 -1.06,6.2 -2.36,11.4 -1.08,4.29 3.97,7.34 8.28,4.21 3.98,-2.89 5.52,-9.81 5.23,-14.71 -0.58,-9.78 -11.3,-11.89 -18.1,-8.74 -7.8,3.61 -9.57,13.27 -6.05,17.69 0.45,0.56 0.79,0.9 0.64,1.47 -0.23,0.88 -0.43,1.78 -0.67,2.66 -0.18,0.65 -0.73,0.89 -1.39,0.62 -1.29,-0.52 -2.38,-1.35 -3.25,-2.44 -2.99,-3.7 -3.85,-11.03 0.11,-17.23 4.38,-6.87 12.53,-9.65 19.97,-8.8 8.88,1.01 14.5,7.08 15.55,13.96 0.48,3.14 0.13,10.87 -4.27,16.34 -5.07,6.28 -13.28,6.7 -17.07,2.84 -0.29,-0.3 -0.53,-0.64 -0.81,-1z"/>
  </g>
 </g>
</svg>