<svg xmlns="http://www.w3.org/2000/svg" xmlns:xlink="http://www.w3.org/1999/xlink" xmlns:xodm="http://www.corel.com/coreldraw/odm/2003" xml:space="preserve" width="10.3163mm" height="10.3167mm" version="1.1" style="shape-rendering:geometricPrecision; text-rendering:geometricPrecision; image-rendering:optimizeQuality; fill-rule:evenodd; clip-rule:evenodd" viewBox="0 0 152.01 152.01">
 <defs>
  <style type="text/css">
   <![CDATA[
    .fil1 {fill:white;fill-rule:nonzero}
    .fil0 {fill:url(#id0)}
   ]]>
  </style>
  <linearGradient id="id0" gradientUnits="userSpaceOnUse" x1="129.75" y1="22.27" x2="22.26" y2="129.75">
   <stop offset="0" style="stop-opacity:1; stop-color:#00DA54"/>
   <stop offset="0.509804" style="stop-opacity:1; stop-color:#00B74F"/>
   <stop offset="1" style="stop-opacity:1; stop-color:#00934A"/>
  </linearGradient>
 </defs>
 <g id="Layer_x0020_1">
  <metadata id="CorelCorpID_0Corel-Layer"/>
  <g id="_3139179607552">
   <path class="fil0" d="M-0 76.01c0,41.98 34.03,76 76,76 41.98,0 76.01,-34.02 76.01,-76l0 0c0,-41.98 -34.03,-76.01 -76.01,-76.01l0 0c-41.98,0 -76,34.04 -76,76.01z"/>
   <path class="fil1" d="M105.3 106.39c-0.86,1.46 -2.4,2.28 -3.98,2.28 -0.79,0 -1.59,-0.2 -2.31,-0.63 -12.1,-7.06 -26.07,-8.2 -35.67,-7.91 -10.63,0.32 -18.42,2.42 -18.5,2.45 -2.45,0.66 -4.98,-0.78 -5.66,-3.22 -0.67,-2.45 0.76,-4.98 3.21,-5.66 0.35,-0.1 8.74,-2.38 20.41,-2.77 6.87,-0.23 13.48,0.25 19.65,1.42 7.82,1.49 14.95,4.09 21.19,7.74 2.19,1.28 2.94,4.1 1.65,6.29z"/>
   <path class="fil1" d="M113.86 88.61c-1.01,1.74 -2.84,2.71 -4.71,2.71 -0.93,0 -1.88,-0.24 -2.75,-0.75 -14.33,-8.37 -30.88,-9.72 -42.25,-9.38 -12.59,0.38 -21.82,2.87 -21.92,2.9 -2.9,0.79 -5.9,-0.92 -6.7,-3.81 -0.79,-2.9 0.9,-5.9 3.81,-6.7 0.42,-0.11 10.35,-2.81 24.17,-3.26 8.14,-0.27 15.98,0.3 23.29,1.68 9.26,1.76 17.7,4.83 25.11,9.16 2.6,1.52 3.47,4.86 1.95,7.46z"/>
   <path class="fil1" d="M119.12 72.45c-1.14,0 -2.31,-0.3 -3.37,-0.92 -34.06,-19.91 -78.25,-8.07 -78.69,-7.95 -3.57,0.98 -7.25,-1.11 -8.23,-4.67 -0.98,-3.56 1.11,-7.25 4.67,-8.23 0.51,-0.14 12.7,-3.45 29.64,-4.01 9.99,-0.33 19.59,0.36 28.56,2.06 11.36,2.16 21.72,5.94 30.79,11.25 3.19,1.86 4.27,5.96 2.4,9.14 -1.24,2.13 -3.48,3.32 -5.78,3.32z"/>
  </g>
 </g>
</svg>