<svg xmlns="http://www.w3.org/2000/svg" xmlns:xlink="http://www.w3.org/1999/xlink" xmlns:xodm="http://www.corel.com/coreldraw/odm/2003" xml:space="preserve" width="10.3166mm" height="10.3163mm" version="1.1" style="shape-rendering:geometricPrecision; text-rendering:geometricPrecision; image-rendering:optimizeQuality; fill-rule:evenodd; clip-rule:evenodd" viewBox="0 0 80.78 80.78">
 <defs>
  <style type="text/css">
   <![CDATA[
    .fil2 {fill:white}
    .fil1 {fill:white;fill-rule:nonzero}
    .fil0 {fill:url(#id0)}
   ]]>
  </style>
  <linearGradient id="id0" gradientUnits="userSpaceOnUse" x1="68.95" y1="11.83" x2="11.83" y2="68.95">
   <stop offset="0" style="stop-opacity:1; stop-color:#00FD73"/>
   <stop offset="1" style="stop-opacity:1; stop-color:#00B35B"/>
  </linearGradient>
 </defs>
 <g id="Layer_x0020_1">
  <metadata id="CorelCorpID_0Corel-Layer"/>
  <g id="_3138770913856">
   <path class="fil0" d="M-0 40.39c0,22.31 18.08,40.39 40.39,40.39 22.31,0 40.39,-18.08 40.39,-40.39 0,-22.3 -18.08,-40.39 -40.39,-40.39l0 0c-22.31,0 -40.39,18.08 -40.39,40.39l0 0z"/>
   <path class="fil1" d="M31.83 55.15l0.8 0.48c2.92,1.74 6.24,2.66 9.6,2.66 10.37,0 18.81,-8.44 18.81,-18.81 0,-10.38 -8.44,-18.81 -18.81,-18.81 -10.38,0 -18.81,8.44 -18.81,18.81 0,3.42 0.95,6.8 2.75,9.75l0.49 0.8 -1.88 7.01 7.05 -1.89zm-13.26 8.09l3.37 -12.57c-1.91,-3.44 -2.91,-7.3 -2.91,-11.21 0,-12.79 10.41,-23.2 23.2,-23.2 12.79,0 23.2,10.41 23.2,23.2 0,12.79 -10.41,23.2 -23.2,23.2 -3.84,0 -7.64,-0.97 -11.03,-2.81l-12.63 3.38z"/>
   <path class="fil2" d="M50.85 42.7c-0.96,-0.57 -2.2,-1.21 -3.32,-0.75 -0.86,0.35 -1.41,1.7 -1.97,2.39 -0.29,0.35 -0.63,0.41 -1.07,0.23 -3.24,-1.29 -5.72,-3.46 -7.51,-6.43 -0.3,-0.46 -0.25,-0.83 0.12,-1.26 0.54,-0.64 1.22,-1.36 1.36,-2.22 0.15,-0.86 -0.26,-1.86 -0.61,-2.62 -0.45,-0.98 -0.96,-2.37 -1.94,-2.92 -0.9,-0.51 -2.08,-0.22 -2.88,0.43 -1.38,1.12 -2.05,2.89 -2.03,4.63 0.01,0.5 0.07,0.99 0.18,1.47 0.28,1.15 0.81,2.23 1.41,3.25 0.45,0.77 0.94,1.52 1.47,2.24 1.74,2.35 3.89,4.4 6.39,5.93 1.25,0.76 2.59,1.43 3.98,1.89 1.56,0.51 2.95,1.05 4.64,0.73 1.76,-0.33 3.5,-1.42 4.2,-3.12 0.21,-0.5 0.31,-1.06 0.2,-1.6 -0.24,-1.1 -1.73,-1.75 -2.62,-2.28z"/>
  </g>
 </g>
</svg>